# File created by Blade
# Date/Time:  Wed Jan 21 17:16:23 2015
# Frame Rate: 120.000 fps
#------------------------------------------------------
:FULLY-SPECIFIED
:DEGREES
320
root 20.393551 23.165189 -16.134670 -151.644539 -4.012394 -178.573052
Spine 72.779862 7.146021 -3.928897
Head -17.574725 1.893521 9.471393
LeftShoulder 27.242211 -47.368525 -4.301702
LeftArm 26.889811 27.485621 -38.393462
LeftForeArm -20.088118 -0.000000 13.168537
LeftHand -5.043824 -0.000000 8.205939
LeftHandThumb1 -26.253704 0.000000 33.147579
RightShoulder 18.670244 15.844022 -3.414929
RightArm 48.462604 -8.517003 39.230264
RightForeArm -18.306792 -0.000000 23.908293
RightHand -10.830433 -0.000000 -13.767072
RightHandThumb1 -24.326973 -0.000000 -32.862282
LeftUpLeg -89.048575 8.748966 -8.232378
LeftLeg 95.615078 -0.000000 -0.000000
LeftFoot -55.308840 33.426849 2.549550
LeftToeBase 29.232936 -0.000000 -0.000000
RightUpLeg -88.961064 11.187419 10.120912
RightLeg 96.527966 -0.000000 -0.000000
RightFoot -56.983641 -28.293544 23.768506
RightToeBase 22.064390 -0.000000 -0.000000
321
root 20.431398 23.332236 -16.111398 -151.094381 -4.183768 -178.572489
Spine 72.849712 7.118394 -3.999236
Head -17.793026 1.945315 9.709160
LeftShoulder 27.566712 -47.675309 -4.237713
LeftArm 27.304322 27.777800 -37.626752
LeftForeArm -21.382447 -0.000000 12.868236
LeftHand -5.125066 -0.000000 7.803322
LeftHandThumb1 -26.253704 0.000000 33.147579
RightShoulder 18.912711 16.474293 -3.428381
RightArm 48.306099 -8.369105 39.282202
RightForeArm -18.247416 -0.000000 23.763284
RightHand -10.699743 -0.000000 -13.389987
RightHandThumb1 -24.326973 -0.000000 -32.862282
LeftUpLeg -89.355832 8.750687 -8.305315
LeftLeg 95.042097 -0.000000 -0.000000
LeftFoot -54.645466 32.920601 2.841248
LeftToeBase 29.211943 -0.000000 -0.000000
RightUpLeg -89.093532 11.063314 10.139691
RightLeg 95.773160 -0.000000 -0.000000
RightFoot -56.633304 -28.253362 23.605129
RightToeBase 22.009925 -0.000000 -0.000000
322
root 20.468134 23.508526 -16.081957 -150.482897 -4.412026 -178.554083
Spine 72.871514 7.022860 -4.019926
Head -18.025777 2.010613 9.897734
LeftShoulder 27.870803 -48.000794 -4.164769
LeftArm 27.599349 27.803771 -37.086275
LeftForeArm -22.007132 -0.000000 12.580892
LeftHand -5.156117 -0.000000 7.546510
LeftHandThumb1 -26.253704 0.000000 33.147579
RightShoulder 19.140383 17.165704 -3.448692
RightArm 48.107004 -8.202725 39.411943
RightForeArm -18.225288 -0.000000 23.658370
RightHand -10.531867 0.000000 -12.885158
RightHandThumb1 -24.326973 -0.000000 -32.862282
LeftUpLeg -89.650136 8.539564 -8.169825
LeftLeg 94.392339 -0.000000 -0.000000
LeftFoot -53.947551 32.716709 3.211777
LeftToeBase 29.225516 -0.000000 -0.000000
RightUpLeg -89.239619 10.781179 10.284872
RightLeg 94.949670 -0.000000 -0.000000
RightFoot -56.234271 -28.228445 23.188818
RightToeBase 22.139656 -0.000000 -0.000000
323
root 20.507062 23.682028 -16.058268 -149.926005 -4.646614 -178.549210
Spine 72.941561 6.953179 -4.001628
Head -18.249570 2.095182 10.106906
LeftShoulder 28.195107 -48.310549 -4.063726
LeftArm 27.852005 27.713773 -36.652988
LeftForeArm -22.325357 -0.000000 12.341928
LeftHand -5.303028 0.000000 7.175768
LeftHandThumb1 -26.253704 0.000000 33.147579
RightShoulder 19.279583 17.751665 -3.478213
RightArm 47.990928 -8.012085 39.478930
RightForeArm -18.081437 -0.000000 23.572528
RightHand -10.359684 -0.000000 -12.713585
RightHandThumb1 -24.326973 -0.000000 -32.862282
LeftUpLeg -89.937196 8.509154 -8.230171
LeftLeg 93.792770 -0.000000 -0.000000
LeftFoot -53.283170 32.338373 3.635369
LeftToeBase 29.206306 -0.000000 -0.000000
RightUpLeg -89.372653 10.571530 10.395349
RightLeg 94.194068 -0.000000 -0.000000
RightFoot -55.906311 -28.153784 23.204185
RightToeBase 22.272346 -0.000000 -0.000000
324
root 20.539946 23.853931 -16.031393 -149.333050 -4.852143 -178.539953
Spine 72.934341 6.896277 -4.017989
Head -18.425828 2.178578 10.335406
LeftShoulder 28.478837 -48.591692 -3.948875
LeftArm 28.041586 27.529849 -36.324486
LeftForeArm -22.472597 -0.000000 12.117133
LeftHand -5.482641 -0.000000 6.972235
LeftHandThumb1 -26.253704 0.000000 33.147579
RightShoulder 19.452107 18.201123 -3.536245
RightArm 47.840741 -7.551191 39.677933
RightForeArm -17.406603 -0.000000 23.599649
RightHand -9.868977 -0.000000 -12.302836
RightHandThumb1 -24.326973 -0.000000 -32.862282
LeftUpLeg -90.253445 8.510160 -8.327293
LeftLeg 93.259065 -0.000000 -0.000000
LeftFoot -52.596115 31.930732 4.207815
LeftToeBase 28.792095 -0.000000 -0.000000
RightUpLeg -89.527783 10.318831 10.533145
RightLeg 93.394047 -0.000000 -0.000000
RightFoot -55.492529 -28.050771 22.859858
RightToeBase 22.232285 -0.000000 -0.000000
325
root 20.566977 24.019585 -16.004366 -148.756128 -5.039658 -178.573838
Spine 72.923049 6.855550 -4.025747
Head -18.615871 2.174628 10.587852
LeftShoulder 28.817388 -48.842212 -3.859641
LeftArm 28.216262 27.360276 -36.016694
LeftForeArm -22.553466 0.000000 11.887733
LeftHand -5.615100 0.000000 6.848007
LeftHandThumb1 -26.253704 0.000000 33.147579
RightShoulder 19.560054 18.715183 -3.573073
RightArm 47.637330 -7.363284 39.757687
RightForeArm -17.507140 -0.000000 23.696845
RightHand -9.942740 -0.000000 -12.390324
RightHandThumb1 -24.326973 -0.000000 -32.862282
LeftUpLeg -90.524581 8.325455 -8.283726
LeftLeg 92.820231 -0.000000 -0.000000
LeftFoot -51.897121 31.641317 4.704578
LeftToeBase 28.077976 -0.000000 -0.000000
RightUpLeg -89.692456 10.052617 10.625235
RightLeg 92.639621 -0.000000 -0.000000
RightFoot -55.143205 -27.928043 22.584977
RightToeBase 22.279078 -0.000000 -0.000000
326
root 20.585746 24.181831 -15.970661 -148.138272 -5.051868 -178.574503
Spine 72.827749 6.959799 -4.136702
Head -18.790416 2.234481 10.825617
LeftShoulder 29.055999 -49.071092 -3.711117
LeftArm 28.397698 27.218506 -35.705360
LeftForeArm -22.568127 -0.000000 11.682893
LeftHand -5.769790 -0.000000 6.662050
LeftHandThumb1 -26.253704 0.000000 33.147579
RightShoulder 19.642158 19.215376 -3.564295
RightArm 47.520097 -7.212465 39.805828
RightForeArm -17.682819 -0.000000 23.735742
RightHand -9.950944 0.000000 -12.518209
RightHandThumb1 -24.326973 -0.000000 -32.862282
LeftUpLeg -90.962386 8.599733 -8.675812
LeftLeg 92.588017 -0.000000 -0.000000
LeftFoot -51.277635 31.004471 5.096838
LeftToeBase 27.122548 -0.000000 -0.000000
RightUpLeg -89.855031 9.994807 10.561653
RightLeg 91.791805 -0.000000 -0.000000
RightFoot -54.729576 -28.151267 21.976880
RightToeBase 22.426068 -0.000000 -0.000000
327
root 20.622774 24.335535 -15.956657 -147.696936 -5.183332 -178.508497
Spine 72.884409 6.992738 -4.209625
Head -18.935383 2.468735 11.031016
LeftShoulder 29.313347 -49.447359 -3.566725
LeftArm 28.269684 26.784309 -35.743507
LeftForeArm -22.043895 -0.000000 11.398738
LeftHand -5.896897 -0.000000 6.211071
LeftHandThumb1 -26.253704 0.000000 33.147579
RightShoulder 19.854322 19.750255 -3.565520
RightArm 47.336439 -7.028654 39.985443
RightForeArm -17.882404 -0.000000 23.786397
RightHand -9.864428 -0.000000 -12.637883
RightHandThumb1 -24.326973 -0.000000 -32.862282
LeftUpLeg -91.104442 8.671245 -8.642201
LeftLeg 92.462830 -0.000000 -0.000000
LeftFoot -50.602824 30.982252 5.553664
LeftToeBase 25.658950 -0.000000 -0.000000
RightUpLeg -89.958647 10.116447 10.514619
RightLeg 91.124496 -0.000000 -0.000000
RightFoot -54.420698 -28.065117 22.307743
RightToeBase 22.355497 -0.000000 -0.000000
